<svg enable-background="new 0 0 32 32" height="32" viewBox="0 0 32 32" width="32" xmlns="http://www.w3.org/2000/svg">
    <path d="m3.678 26.458-2.053 3.862.051-21.044c0-4.228 3.413-7.648 7.648-7.648h20.993c-5.967 1.854-12.184 6.044-16.29 10.817-4.53 5.222-7.102 8.815-10.349 14.013" fill="#047863"/>
    <path d="m30.368 1.628s-9.162 4.286-11.959 10.721c-1.488 3.439-1.854 7.577-4.555 10.176-1.854 1.784-4.478 2.451-6.756 3.612-1.488.77-4.26 2.599-5.447 4.235h21.07c4.234 0 7.653-3.42 7.653-7.648-.006-.001-.006-21.095-.006-21.095z" fill="#06a261"/>
</svg>
